<svg width="479" height="291" viewBox="0 0 479 291" fill="none" xmlns="http://www.w3.org/2000/svg">
<path d="M57.3969 106.454H49.1974H40.9978V177.424L101.128 117.373H106.594L169.458 180.153V0L0 87.3471L0 289.337L103.861 182.883H106.594L210.455 291L210.455 92.8063H194.056V251.123L106.594 161.046H103.861L16.3991 251.918L16.3991 95.5359L153.058 27.296V141.939L104.516 95.5359L57.3969 142.593V106.454Z" fill="#239383"/>
<path d="M262.011 92.3686L276.727 32.6401H284.694L285.202 45.2252L269.47 106.527H261.047L262.011 92.3686ZM252.724 32.6401L264.802 92.1656V106.527H255.617L238.87 32.6401H252.724ZM300.476 91.9118L312.351 32.6401H326.256L309.509 106.527H300.324L300.476 91.9118ZM288.5 32.6401L303.217 92.5715L304.079 106.527H295.656L279.975 45.1744L280.584 32.6401H288.5Z" fill="#173E2C"/>
<path d="M357.109 107.542C352.948 107.542 349.21 106.865 345.894 105.512C342.579 104.159 339.754 102.281 337.42 99.879C335.119 97.4432 333.343 94.6183 332.091 91.4044C330.874 88.1566 330.265 84.672 330.265 80.9506V78.9208C330.265 74.6919 330.874 70.8521 332.091 67.4013C333.309 63.9167 335.035 60.9227 337.268 58.4192C339.5 55.9157 342.173 53.9874 345.286 52.6341C348.398 51.2809 351.832 50.6043 355.587 50.6043C359.478 50.6043 362.911 51.264 365.889 52.5834C368.866 53.869 371.352 55.6958 373.348 58.064C375.344 60.4322 376.85 63.274 377.865 66.5894C378.88 69.871 379.387 73.5078 379.387 77.4999V83.1327H336.354V73.8969H366.193V72.8819C366.125 70.7506 365.719 68.8053 364.975 67.0461C364.231 65.2531 363.081 63.8322 361.524 62.7834C359.968 61.7008 357.955 61.1595 355.486 61.1595C353.49 61.1595 351.747 61.5993 350.259 62.4789C348.804 63.3247 347.586 64.5426 346.605 66.1327C345.658 67.6889 344.947 69.5496 344.474 71.7148C344 73.88 343.763 76.2819 343.763 78.9208V80.9506C343.763 83.2511 344.068 85.3825 344.677 87.3447C345.319 89.3069 346.25 91.0153 347.468 92.47C348.719 93.8909 350.208 95.0074 351.933 95.8193C353.692 96.5974 355.689 96.9865 357.921 96.9865C360.729 96.9865 363.267 96.4452 365.533 95.3626C367.834 94.2462 369.83 92.6054 371.521 90.4402L378.271 97.4432C377.12 99.1347 375.564 100.759 373.602 102.315C371.674 103.871 369.339 105.14 366.599 106.121C363.859 107.068 360.695 107.542 357.109 107.542Z" fill="#173E2C"/>
<path d="M292.956 227.679V238.234H239.723L239.165 230.115L270.475 180.738H281.183L269.613 200.377L252.816 227.679H292.956ZM284.177 180.738V254.625H270.729V180.738H284.177Z" fill="#173E2C"/>
<path d="M334.416 241.583V199.717H347.914V254.625H335.228L334.416 241.583ZM336.141 230.216L340.302 230.115C340.302 233.802 339.896 237.202 339.084 240.315C338.272 243.427 337.004 246.133 335.278 248.434C333.587 250.701 331.439 252.477 328.834 253.762C326.229 255.014 323.15 255.64 319.598 255.64C316.891 255.64 314.422 255.268 312.189 254.524C309.956 253.745 308.028 252.544 306.404 250.921C304.814 249.263 303.579 247.148 302.699 244.577C301.82 241.972 301.38 238.843 301.38 235.189V199.717H314.777V235.291C314.777 237.118 314.98 238.64 315.386 239.858C315.826 241.076 316.418 242.074 317.162 242.852C317.94 243.596 318.837 244.137 319.852 244.476C320.9 244.78 322.017 244.932 323.201 244.932C326.449 244.932 329.003 244.29 330.863 243.004C332.758 241.685 334.111 239.925 334.923 237.726C335.735 235.494 336.141 232.99 336.141 230.216Z" fill="#173E2C"/>
<path d="M260.022 168.853L274.738 106.689H282.959L284.837 117.041L269.156 180.576H260.326L260.022 168.853ZM252.46 106.689L264.639 168.853L263.625 180.576H253.78L237.389 106.689H252.46ZM297.777 168.6L309.804 106.689H324.875L308.535 180.576H298.69L297.777 168.6ZM287.577 106.689L302.395 169.107L301.989 180.576H293.159L277.377 116.991L279.407 106.689H287.577Z" fill="#288982"/>
<path d="M328.275 153.68V152.615C328.275 148.589 328.851 144.884 330.001 141.501C331.151 138.084 332.826 135.124 335.025 132.621C337.224 130.117 339.93 128.172 343.144 126.785C346.358 125.364 350.046 124.653 354.207 124.653C358.368 124.653 362.073 125.364 365.32 126.785C368.568 128.172 371.291 130.117 373.49 132.621C375.723 135.124 377.415 138.084 378.565 141.501C379.715 144.884 380.29 148.589 380.29 152.615V153.68C380.29 157.672 379.715 161.377 378.565 164.794C377.415 168.177 375.723 171.137 373.49 173.674C371.291 176.178 368.585 178.123 365.371 179.51C362.157 180.897 358.47 181.591 354.308 181.591C350.147 181.591 346.443 180.897 343.195 179.51C339.981 178.123 337.258 176.178 335.025 173.674C332.826 171.137 331.151 168.177 330.001 164.794C328.851 161.377 328.275 157.672 328.275 153.68ZM342.89 152.615V153.68C342.89 155.981 343.093 158.129 343.499 160.125C343.905 162.121 344.548 163.88 345.428 165.403C346.341 166.891 347.525 168.058 348.98 168.904C350.435 169.75 352.211 170.173 354.308 170.173C356.338 170.173 358.08 169.75 359.535 168.904C360.99 168.058 362.157 166.891 363.037 165.403C363.916 163.88 364.559 162.121 364.965 160.125C365.405 158.129 365.625 155.981 365.625 153.68V152.615C365.625 150.382 365.405 148.284 364.965 146.322C364.559 144.326 363.899 142.567 362.986 141.044C362.106 139.488 360.939 138.27 359.484 137.391C358.03 136.511 356.271 136.071 354.207 136.071C352.143 136.071 350.384 136.511 348.929 137.391C347.508 138.27 346.341 139.488 345.428 141.044C344.548 142.567 343.905 144.326 343.499 146.322C343.093 148.284 342.89 150.382 342.89 152.615Z" fill="#288982"/>
<path d="M403.888 137.644V180.576H389.273V125.668H403.025L403.888 137.644ZM420.431 125.313L420.177 138.862C419.467 138.761 418.604 138.676 417.589 138.609C416.608 138.507 415.711 138.456 414.899 138.456C412.836 138.456 411.043 138.727 409.52 139.268C408.032 139.776 406.78 140.537 405.765 141.552C404.784 142.567 404.04 143.802 403.532 145.256C403.059 146.711 402.788 148.369 402.72 150.23L399.777 149.316C399.777 145.764 400.132 142.499 400.843 139.522C401.553 136.511 402.585 133.889 403.938 131.656C405.325 129.424 407.017 127.698 409.013 126.48C411.009 125.262 413.293 124.653 415.864 124.653C416.676 124.653 417.504 124.721 418.35 124.856C419.196 124.958 419.89 125.11 420.431 125.313Z" fill="#288982"/>
<path d="M441.947 102.579V180.576H427.332V102.579H441.947ZM476.556 125.668L452.706 152.868L439.917 165.809L434.589 155.253L444.738 142.364L458.998 125.668H476.556ZM461.383 180.576L445.144 155.203L455.243 146.373L478.231 180.576H461.383Z" fill="#288982"/>
</svg>
